# xmcd
#
# Track frame offsets:
#	150
#	17889
#	33420
#	49633
#	65019
#	81553
#	96504
#	111204
#	125166
#	138575
#	152488
#	163066
#	178564
#	192447
#
# Disc length: 2775 seconds
#
# Revision: 1
# Processed by: cddbd v1.5.2PL0 Copyright (c) Steve Scherf et al.
# Submitted via: audiograbber 1.83.01
#
DISCID=cb0ad50e
DTITLE=The Bosshoss - Do Or Die
DYEAR=2009
DGENRE=Country
TTITLE0=The Bosshoss - Last Day (Do Or Die)
TTITLE1=The Bosshoss - Eagleize It
TTITLE2=The Bosshoss - Boon And Bain
TTITLE3=The Bosshoss - Jelly Bean
TTITLE4=The Bosshoss - Break Free
TTITLE5=The Bosshoss - 21st Century Buttkickin`Love Affair
TTITLE6=The Bosshoss - GoGoGo
TTITLE7=The Bosshoss - Rock On Rock
TTITLE8=The Bosshoss - Wolf Call
TTITLE9=The Bosshoss - Close
TTITLE10=The Bosshoss - Quick Joey Small
TTITLE11=The Bosshoss - Shake Your Hips
TTITLE12=The Bosshoss - Guitars And Cars
TTITLE13=The Bosshoss - Crazy About Mary
EXTD=
EXTT0=
EXTT1=
EXTT2=
EXTT3=
EXTT4=
EXTT5=
EXTT6=
EXTT7=
EXTT8=
EXTT9=
EXTT10=
EXTT11=
EXTT12=
EXTT13=
PLAYORDER=
